<svg id="visual" viewBox="0 0 900 600" width="900" height="600" xmlns="http://www.w3.org/2000/svg" xmlns:xlink="http://www.w3.org/1999/xlink" version="1.1"><path d="M0 67L21.5 67.3C43 67.7 86 68.3 128.8 76.7C171.7 85 214.3 101 257.2 100.8C300 100.7 343 84.3 385.8 84.2C428.7 84 471.3 100 514.2 101.2C557 102.3 600 88.7 642.8 81C685.7 73.3 728.3 71.7 771.2 70.8C814 70 857 70 878.5 70L900 70L900 0L878.5 0C857 0 814 0 771.2 0C728.3 0 685.7 0 642.8 0C600 0 557 0 514.2 0C471.3 0 428.7 0 385.8 0C343 0 300 0 257.2 0C214.3 0 171.7 0 128.8 0C86 0 43 0 21.5 0L0 0Z" fill="#0066FF" stroke-linecap="round" stroke-linejoin="miter"></path></svg>